{"title":"The Tree of Life (2011) DVDRip XviD-MAX","uid":6685083,"size":1807791218,"categoryP":"video","categoryS":"movies","magnet":"?xt=urn:btih:9d3910ae888c32c7119afd5346343b3ebd247026&amp;dn=The+Tree+of+Life+%282011%29+DVDRip+XviD-MAX&amp;tr=udp%3A%2F%2Ftracker.openbittorrent.com%3A80&amp;tr=udp%3A%2F%2Fopen.demonii.com%3A1337&amp;tr=udp%3A%2F%2Ftracker.coppersurfer.tk%3A6969&amp;tr=udp%3A%2F%2Fexodus.desync.com%3A6969","seeders":0,"leechers":0,"uploader":"extremezone","files":-1,"time":1316372612,"description":" &lt;a href=&quot;http://www.hotimg.com/direct/VrtSXFc.jpg&quot; rel=&quot;nofollow&quot; target=&quot;_NEW&quot;&gt;http://www.hotimg.com/direct/VrtSXFc.jpg&lt;/a&gt;\n\nScreens:\n &lt;a href=&quot;\nhttp://www.hotimg.com/direct/Qfc9wvT.jpg&quot; rel=&quot;nofollow&quot; target=&quot;_NEW&quot;&gt;\nhttp://www.hotimg.com/direct/Qfc9wvT.jpg&lt;/a&gt;\n &lt;a href=&quot;\nhttp://www.hotimg.com/direct/Q4UHpBa.jpg&quot; rel=&quot;nofollow&quot; target=&quot;_NEW&quot;&gt;\nhttp://www.hotimg.com/direct/Q4UHpBa.jpg&lt;/a&gt;\n &lt;a href=&quot;\nhttp://www.hotimg.com/direct/qsCcb4C.jpg&quot; rel=&quot;nofollow&quot; target=&quot;_NEW&quot;&gt;\nhttp://www.hotimg.com/direct/qsCcb4C.jpg&lt;/a&gt;\n &lt;a href=&quot;\nhttp://www.hotimg.com/direct/ZKRn45m.jpg&quot; rel=&quot;nofollow&quot; target=&quot;_NEW&quot;&gt;\nhttp://www.hotimg.com/direct/ZKRn45m.jpg&lt;/a&gt;\n\nAlternative:\n &lt;a href=&quot;\nhttp://www.postimg.com/image/48000/photo-47300.jpg&quot; rel=&quot;nofollow&quot; target=&quot;_NEW&quot;&gt;\nhttp://www.postimg.com/image/48000/photo-47300.jpg&lt;/a&gt;\n &lt;a href=&quot;\nhttp://www.postimg.com/image/48000/photo-47301.jpg&quot; rel=&quot;nofollow&quot; target=&quot;_NEW&quot;&gt;\nhttp://www.postimg.com/image/48000/photo-47301.jpg&lt;/a&gt;\n &lt;a href=&quot;\nhttp://www.postimg.com/image/48000/photo-47302.jpg&quot; rel=&quot;nofollow&quot; target=&quot;_NEW&quot;&gt;\nhttp://www.postimg.com/image/48000/photo-47302.jpg&lt;/a&gt;\n &lt;a href=&quot;\nhttp://www.postimg.com/image/48000/photo-47303.jpg&quot; rel=&quot;nofollow&quot; target=&quot;_NEW&quot;&gt;\nhttp://www.postimg.com/image/48000/photo-47303.jpg&lt;/a&gt;\n\nScreenCaps:\n &lt;a href=&quot;\nhttp://www.postimg.com/image/48000/photo-47304.jpg&quot; rel=&quot;nofollow&quot; target=&quot;_NEW&quot;&gt;\nhttp://www.postimg.com/image/48000/photo-47304.jpg&lt;/a&gt;\n\nThe Tree of Life (2011) DVDRip XviD-MAX\nFormat                           : AVI\nFormat/Info                      : Audio Video Interleave\nFormat profile                   : OpenDML\nFile size                        : 1.68 GiB\nDuration                         : 2h 18mn\nOverall bit rate                 : 1 727 Kbps\nWriting application              : VirtualDubMod 1.5.10.2 (build 2542/release)\nWriting library                  : VirtualDubMod build 2542/release\nOriginal source form             : MAX TORRENTZ\nCopyright                        : SIGISMUNT\n\nVideo\nID                               : 0\nFormat                           : MPEG-4 Visual\nFormat profile                   : AdvancedSimple@L5\nFormat settings, BVOP            : Yes\nFormat settings, QPel            : No\nFormat settings, GMC             : No warppoints\nFormat settings, Matrix          : Custom\nCodec ID                         : XVID\nCodec ID/Hint                    : XviD\nDuration                         : 2h 18mn\nBit rate                         : 1 274 Kbps\nWidth                            : 720 pixels\nHeight                           : 384 pixels\nDisplay aspect ratio             : 1.875\nFrame rate                       : 23.976 fps\nResolution                       : 24 bits\nColorimetry                      : 4:2:0\nScan type                        : Progressive\nBits/(Pixel*Frame)               : 0.192\nStream size                      : 1.24 GiB (74%)\nWriting library                  : XviD 58\n\nAudio\nID                               : 1\nFormat                           : AC-3\nFormat/Info                      : Audio Coding 3\nCodec ID                         : 2000\nDuration                         : 2h 18mn\nBit rate mode                    : Constant\nBit rate                         : 448 Kbps\nChannel(s)                       : 2 channels\nChannel positions                : L R\nSampling rate                    : 48.0 KHz\nStream size                      : 445 MiB (26%)\nAlignment                        : Aligned on interleaves\nInterleave, duration             : 64 ms (1.53 video frames)\nInterleave, preload duration     : 192 ms\n &lt;a href=&quot;\nhttp://www.imdb.com/title/tt0478304/&quot; rel=&quot;nofollow&quot; target=&quot;_NEW&quot;&gt;\nhttp://www.imdb.com/title/tt0478304/&lt;/a&gt;\n\nSource: DVD (perfect a/v/sync quality,sample included)\nThis torrent is not seedbox supported,please seed it to the MAX\n\nNote:If you have something to offer as early releases,seedboxes,links,accounts,etc\nplease contact us on piratepedia[@]msn/gmail.com or our website torentz 3xforum ro\n\nThe Tree of Life (2011) DVDRip XviD-MAX Torrent Free Download\n &lt;a href=&quot;\nhttp://thepiratebay.se/user/extremezone/0/7&quot; rel=&quot;nofollow&quot; target=&quot;_NEW&quot;&gt;\nhttp://thepiratebay.se/user/extremezone/0/7&lt;/a&gt;\n\nHow To Get Your Maxspeed (uTorrent)\n\nTorrent Client - Preferences - Bandwidth - Number of connections - Set aprox. 500 for each \nTorrent Client - Preferences - BiTorrent - Protocol Encryption - Forced\nBandwidth Allocation - High (Set download/upload limit - Unlimited)\nStop Other Active Torrents - Start downloading and wait for connections.\nEnjoy and Seed for at least 1:1 ratio. Don't forget to say thanks/leave reviews.\nBefore downloading you should check/google search sample &quot;release name&quot;&quot;sample&quot;.\nGreets to all actual/future p2p/scene QUALITY groups and affiliate websites.\nDon't trust IMDb robot or bad ratings,always watch some trailers first.\nIgnore stupid comments/fake/mislabeled/no-DVDrips/CAM/TS/RAR uploads.\nPlease spread this release/torrent to your friends/forums/etc.\nIf you need translation subs visit some subtitles sites.\nReport if you see online streaming or other spam links.\nRecommended movie player VLC PLAYER.","torrent":{"xt":"urn:btih:9d3910ae888c32c7119afd5346343b3ebd247026","amp;dn":"The+Tree+of+Life+%282011%29+DVDRip+XviD-MAX","amp;tr":["udp%3A%2F%2Ftracker.openbittorrent.com%3A80","udp%3A%2F%2Fopen.demonii.com%3A1337","udp%3A%2F%2Ftracker.coppersurfer.tk%3A6969","udp%3A%2F%2Fexodus.desync.com%3A6969"],"infoHash":"9d3910ae888c32c7119afd5346343b3ebd247026","infoHashBuffer":{"type":"Buffer","data":[157,57,16,174,136,140,50,199,17,154,253,83,70,52,59,62,189,36,112,38]},"announce":[],"urlList":[]}}